# xmcd CD database file
#
# Track frame offsets:
#	150
#	19958
#	43438
#	62895
#	80462
#	100378
#	116271
#	136511
#	153403
#	171240
#	189401
#	206320
#	227397
#	247178
#	268498
#	287793
#	300230
#	314611
#
# Disc length: 4396 seconds
#
# Revision: 7
# Processed by: cddbd v1.4PL0 Copyright (c) Steve Scherf et al.
# Submitted via: CDex 1.50beta10
#
DISCID=fd112a12
DTITLE=Samuele Bersani - Che vita! Il meglio di Samuele Bersani
DYEAR=2002
DGENRE=Pop
TTITLE0=Che vita! (inedito)
TTITLE1=Il mostro (versione 2002)
TTITLE2=Chicco e Spillo
TTITLE3=Freak
TTITLE4=Spaccacuore
TTITLE5=Cosa vuoi da me
TTITLE6=Cado giù
TTITLE7=Barcarola albanese
TTITLE8=Giudizi universali
TTITLE9=Coccodrilli
TTITLE10=Braccio di ferro
TTITLE11=Crazy boy
TTITLE12=Replay
TTITLE13=Il pescatore di asterischi
TTITLE14=Senza titoli
TTITLE15=Chiedimi se sono felice
TTITLE16=Milingo (inedito)
TTITLE17=La mie parole (inedito)
EXTD=YEAR: 2002
EXTT0=
EXTT1=
EXTT2=
EXTT3=
EXTT4=
EXTT5=
EXTT6=
EXTT7=
EXTT8=
EXTT9=
EXTT10=
EXTT11=
EXTT12=
EXTT13=
EXTT14=
EXTT15=
EXTT16=
EXTT17=
PLAYORDER=
